<?xml version="1.0" encoding="utf-8" standalone="no"?>
<!DOCTYPE svg PUBLIC "-//W3C//DTD SVG 1.1//EN"
  "http://www.w3.org/Graphics/SVG/1.1/DTD/svg11.dtd">
<svg xmlns:xlink="http://www.w3.org/1999/xlink" width="1016.39952pt" height="346.79952pt" viewBox="0 0 1016.39952 346.79952" xmlns="http://www.w3.org/2000/svg" version="1.1">
 <metadata>
  <rdf:RDF xmlns:dc="http://purl.org/dc/elements/1.1/" xmlns:cc="http://creativecommons.org/ns#" xmlns:rdf="http://www.w3.org/1999/02/22-rdf-syntax-ns#">
   <cc:Work>
    <dc:type rdf:resource="http://purl.org/dc/dcmitype/StillImage"/>
    <dc:date>2026-09-12T15:26:31.192927</dc:date>
    <dc:format>image/svg+xml</dc:format>
    <dc:creator>
     <cc:Agent>
      <dc:title>Matplotlib v3.9.4, https://matplotlib.org/</dc:title>
     </cc:Agent>
    </dc:creator>
   </cc:Work>
  </rdf:RDF>
 </metadata>
 <defs>
  <style type="text/css">*{stroke-linejoin: round; stroke-linecap: butt}</style>
 </defs>
 <g id="figure_1">
  <g id="patch_1">
   <path d="M 0 346.79952 
L 1016.39952 346.79952 
L 1016.39952 0 
L 0 0 
z
" style="fill: #ffffff"/>
  </g>
  <g id="axes_1">
   <g id="patch_2">
    <path d="M 46.965625 309.24327 
L 336.71984 309.24327 
L 336.71984 22.318125 
L 46.965625 22.318125 
z
" style="fill: #ffffff"/>
   </g>
   <g id="PolyCollection_1">
    <path d="M 60.136271 149.521606 
L 60.136271 309.24327 
L 89.404374 309.24327 
L 118.672476 309.24327 
L 147.940579 309.24327 
L 177.208681 309.24327 
L 206.476784 309.24327 
L 235.744886 309.24327 
L 265.012989 309.24327 
L 294.281091 309.24327 
L 323.549194 309.24327 
L 323.549194 203.080966 
L 323.549194 203.080966 
L 294.281091 223.165726 
L 265.012989 183.952623 
L 235.744886 207.863052 
L 206.476784 214.557972 
L 177.208681 240.381235 
L 147.940579 234.642732 
L 118.672476 261.422412 
L 89.404374 174.388452 
L 60.136271 149.521606 
z
" clip-path="url(#pef45c75f69)" style="fill: #2878a0; fill-opacity: 0.85"/>
   </g>
   <g id="PolyCollection_2">
    <path d="M 60.136271 149.521606 
L 60.136271 149.521606 
L 89.404374 174.388452 
L 118.672476 261.422412 
L 147.940579 234.642732 
L 177.208681 240.381235 
L 206.476784 214.557972 
L 235.744886 207.863052 
L 265.012989 183.952623 
L 294.281091 223.165726 
L 323.549194 203.080966 
L 323.549194 168.649949 
L 323.549194 168.649949 
L 294.281091 182.039789 
L 265.012989 155.260109 
L 235.744886 184.90904 
L 206.476784 186.821875 
L 177.208681 205.950218 
L 147.940579 204.993801 
L 118.672476 223.165726 
L 89.404374 131.34968 
L 60.136271 149.521606 
z
" clip-path="url(#pef45c75f69)" style="fill: #d76b45; fill-opacity: 0.85"/>
   </g>
   <g id="PolyCollection_3">
    <path d="M 60.136271 149.521606 
L 60.136271 149.521606 
L 89.404374 131.34968 
L 118.672476 223.165726 
L 147.940579 204.993801 
L 177.208681 205.950218 
L 206.476784 186.821875 
L 235.744886 184.90904 
L 265.012989 155.260109 
L 294.281091 182.039789 
L 323.549194 168.649949 
L 323.549194 139.001017 
L 323.549194 139.001017 
L 294.281091 138.0446 
L 265.012989 122.741926 
L 235.744886 147.608772 
L 206.476784 157.172943 
L 177.208681 184.90904 
L 147.940579 178.21412 
L 118.672476 213.601555 
L 89.404374 131.34968 
L 60.136271 149.521606 
z
" clip-path="url(#pef45c75f69)" style="fill: #419884; fill-opacity: 0.85"/>
   </g>
   <g id="matplotlib.axis_1">
    <g id="xtick_1">
     <g id="line2d_1">
      <defs>
       <path id="m855556c0c4" d="M 0 0 
L 0 3.5 
" style="stroke: #000000; stroke-width: 0.8"/>
      </defs>
      <g>
       <use xlink:href="#m855556c0c4" x="60.136271" y="309.24327" style="stroke: #000000; stroke-width: 0.8"/>
      </g>
     </g>
     <g id="text_1">
      <text style="font: 10px 'DejaVu Sans', 'Heiti TC'; text-anchor: middle" x="60.136271" y="323.841707" transform="rotate(-0 60.136271 323.841707)">2015</text>
     </g>
    </g>
    <g id="xtick_2">
     <g id="line2d_2">
      <g>
       <use xlink:href="#m855556c0c4" x="147.940579" y="309.24327" style="stroke: #000000; stroke-width: 0.8"/>
      </g>
     </g>
     <g id="text_2">
      <text style="font: 10px 'DejaVu Sans', 'Heiti TC'; text-anchor: middle" x="147.940579" y="323.841707" transform="rotate(-0 147.940579 323.841707)">2018</text>
     </g>
    </g>
    <g id="xtick_3">
     <g id="line2d_3">
      <g>
       <use xlink:href="#m855556c0c4" x="235.744886" y="309.24327" style="stroke: #000000; stroke-width: 0.8"/>
      </g>
     </g>
     <g id="text_3">
      <text style="font: 10px 'DejaVu Sans', 'Heiti TC'; text-anchor: middle" x="235.744886" y="323.841707" transform="rotate(-0 235.744886 323.841707)">2021</text>
     </g>
    </g>
    <g id="xtick_4">
     <g id="line2d_4">
      <g>
       <use xlink:href="#m855556c0c4" x="323.549194" y="309.24327" style="stroke: #000000; stroke-width: 0.8"/>
      </g>
     </g>
     <g id="text_4">
      <text style="font: 10px 'DejaVu Sans', 'Heiti TC'; text-anchor: middle" x="323.549194" y="323.841707" transform="rotate(-0 323.549194 323.841707)">2024</text>
     </g>
    </g>
    <g id="text_5">
     <text style="font: 10px 'DejaVu Sans', 'Heiti TC'; text-anchor: middle" x="191.842732" y="337.519832" transform="rotate(-0 191.842732 337.519832)">發表年</text>
    </g>
   </g>
   <g id="matplotlib.axis_2">
    <g id="ytick_1">
     <g id="line2d_5">
      <defs>
       <path id="mfc24e50a48" d="M 0 0 
L -3.5 0 
" style="stroke: #000000; stroke-width: 0.8"/>
      </defs>
      <g>
       <use xlink:href="#mfc24e50a48" x="46.965625" y="309.24327" style="stroke: #000000; stroke-width: 0.8"/>
      </g>
     </g>
     <g id="text_6">
      <text style="font: 10px 'DejaVu Sans', 'Heiti TC'; text-anchor: end" x="39.965625" y="313.042489" transform="rotate(-0 39.965625 313.042489)">0</text>
     </g>
    </g>
    <g id="ytick_2">
     <g id="line2d_6">
      <g>
       <use xlink:href="#mfc24e50a48" x="46.965625" y="261.422412" style="stroke: #000000; stroke-width: 0.8"/>
      </g>
     </g>
     <g id="text_7">
      <text style="font: 10px 'DejaVu Sans', 'Heiti TC'; text-anchor: end" x="39.965625" y="265.221631" transform="rotate(-0 39.965625 265.221631)">50</text>
     </g>
    </g>
    <g id="ytick_3">
     <g id="line2d_7">
      <g>
       <use xlink:href="#mfc24e50a48" x="46.965625" y="213.601555" style="stroke: #000000; stroke-width: 0.8"/>
      </g>
     </g>
     <g id="text_8">
      <text style="font: 10px 'DejaVu Sans', 'Heiti TC'; text-anchor: end" x="39.965625" y="217.400774" transform="rotate(-0 39.965625 217.400774)">100</text>
     </g>
    </g>
    <g id="ytick_4">
     <g id="line2d_8">
      <g>
       <use xlink:href="#mfc24e50a48" x="46.965625" y="165.780697" style="stroke: #000000; stroke-width: 0.8"/>
      </g>
     </g>
     <g id="text_9">
      <text style="font: 10px 'DejaVu Sans', 'Heiti TC'; text-anchor: end" x="39.965625" y="169.579916" transform="rotate(-0 39.965625 169.579916)">150</text>
     </g>
    </g>
    <g id="ytick_5">
     <g id="line2d_9">
      <g>
       <use xlink:href="#mfc24e50a48" x="46.965625" y="117.95984" style="stroke: #000000; stroke-width: 0.8"/>
      </g>
     </g>
     <g id="text_10">
      <text style="font: 10px 'DejaVu Sans', 'Heiti TC'; text-anchor: end" x="39.965625" y="121.759059" transform="rotate(-0 39.965625 121.759059)">200</text>
     </g>
    </g>
    <g id="ytick_6">
     <g id="line2d_10">
      <g>
       <use xlink:href="#mfc24e50a48" x="46.965625" y="70.138982" style="stroke: #000000; stroke-width: 0.8"/>
      </g>
     </g>
     <g id="text_11">
      <text style="font: 10px 'DejaVu Sans', 'Heiti TC'; text-anchor: end" x="39.965625" y="73.938201" transform="rotate(-0 39.965625 73.938201)">250</text>
     </g>
    </g>
    <g id="ytick_7">
     <g id="line2d_11">
      <g>
       <use xlink:href="#mfc24e50a48" x="46.965625" y="22.318125" style="stroke: #000000; stroke-width: 0.8"/>
      </g>
     </g>
     <g id="text_12">
      <text style="font: 10px 'DejaVu Sans', 'Heiti TC'; text-anchor: end" x="39.965625" y="26.117344" transform="rotate(-0 39.965625 26.117344)">300</text>
     </g>
    </g>
    <g id="text_13">
     <text style="font: 10px 'DejaVu Sans', 'Heiti TC'; text-anchor: middle" x="14.798438" y="165.780697" transform="rotate(-90 14.798438 165.780697)">當年不同名冊—非名冊合作對</text>
    </g>
   </g>
   <g id="patch_3">
    <path d="M 46.965625 309.24327 
L 46.965625 22.318125 
" style="fill: none; stroke: #000000; stroke-width: 0.8; stroke-linejoin: miter; stroke-linecap: square"/>
   </g>
   <g id="patch_4">
    <path d="M 46.965625 309.24327 
L 336.71984 309.24327 
" style="fill: none; stroke: #000000; stroke-width: 0.8; stroke-linejoin: miter; stroke-linecap: square"/>
   </g>
   <g id="text_14">
    <text style="font: 12px 'DejaVu Sans', 'Heiti TC'; text-anchor: middle" x="191.842732" y="16.318125" transform="rotate(-0 191.842732 16.318125)">國內非名冊</text>
   </g>
   <g id="legend_1">
    <g id="patch_5">
     <path d="M 52.565625 63.945625 
L 118.165625 63.945625 
Q 119.765625 63.945625 119.765625 62.345625 
L 119.765625 27.918125 
Q 119.765625 26.318125 118.165625 26.318125 
L 52.565625 26.318125 
Q 50.965625 26.318125 50.965625 27.918125 
L 50.965625 62.345625 
Q 50.965625 63.945625 52.565625 63.945625 
z
" style="fill: #ffffff; opacity: 0.8; stroke: #cccccc; stroke-linejoin: miter"/>
    </g>
    <g id="patch_6">
     <path d="M 54.165625 35.596875 
L 70.165625 35.596875 
L 70.165625 29.996875 
L 54.165625 29.996875 
z
" style="fill: #2878a0; fill-opacity: 0.85"/>
    </g>
    <g id="text_15">
     <text style="font: 8px 'DejaVu Sans', 'Heiti TC'; text-anchor: start" x="76.565625" y="35.596875" transform="rotate(-0 76.565625 35.596875)">首次觀察</text>
    </g>
    <g id="patch_7">
     <path d="M 54.165625 47.339375 
L 70.165625 47.339375 
L 70.165625 41.739375 
L 54.165625 41.739375 
z
" style="fill: #d76b45; fill-opacity: 0.85"/>
    </g>
    <g id="text_16">
     <text style="font: 8px 'DejaVu Sans', 'Heiti TC'; text-anchor: start" x="76.565625" y="47.339375" transform="rotate(-0 76.565625 47.339375)">連年出現</text>
    </g>
    <g id="patch_8">
     <path d="M 54.165625 59.081875 
L 70.165625 59.081875 
L 70.165625 53.481875 
L 54.165625 53.481875 
z
" style="fill: #419884; fill-opacity: 0.85"/>
    </g>
    <g id="text_17">
     <text style="font: 8px 'DejaVu Sans', 'Heiti TC'; text-anchor: start" x="76.565625" y="59.081875" transform="rotate(-0 76.565625 59.081875)">間隔後再現</text>
    </g>
   </g>
  </g>
  <g id="axes_2">
   <g id="patch_9">
    <path d="M 383.205465 309.24327 
L 672.95968 309.24327 
L 672.95968 22.318125 
L 383.205465 22.318125 
z
" style="fill: #ffffff"/>
   </g>
   <g id="PolyCollection_4">
    <path d="M 396.376111 225.078561 
L 396.376111 309.24327 
L 425.644214 309.24327 
L 454.912316 309.24327 
L 484.180419 309.24327 
L 513.448521 309.24327 
L 542.716624 309.24327 
L 571.984726 309.24327 
L 601.252829 309.24327 
L 630.520931 309.24327 
L 659.789034 309.24327 
L 659.789034 224.122144 
L 659.789034 224.122144 
L 630.520931 214.557972 
L 601.252829 219.340058 
L 571.984726 215.514389 
L 542.716624 234.642732 
L 513.448521 240.381235 
L 484.180419 220.296475 
L 454.912316 209.775886 
L 425.644214 228.904229 
L 396.376111 225.078561 
z
" clip-path="url(#pdc110a459a)" style="fill: #2878a0; fill-opacity: 0.85"/>
   </g>
   <g id="PolyCollection_5">
    <path d="M 396.376111 225.078561 
L 396.376111 225.078561 
L 425.644214 228.904229 
L 454.912316 209.775886 
L 484.180419 220.296475 
L 513.448521 240.381235 
L 542.716624 234.642732 
L 571.984726 215.514389 
L 601.252829 219.340058 
L 630.520931 214.557972 
L 659.789034 224.122144 
L 659.789034 194.473212 
L 659.789034 194.473212 
L 630.520931 182.039789 
L 601.252829 185.865458 
L 571.984726 196.386046 
L 542.716624 211.688721 
L 513.448521 220.296475 
L 484.180419 199.255298 
L 454.912316 201.168132 
L 425.644214 218.383641 
L 396.376111 225.078561 
z
" clip-path="url(#pdc110a459a)" style="fill: #d76b45; fill-opacity: 0.85"/>
   </g>
   <g id="PolyCollection_6">
    <path d="M 396.376111 225.078561 
L 396.376111 225.078561 
L 425.644214 218.383641 
L 454.912316 201.168132 
L 484.180419 199.255298 
L 513.448521 220.296475 
L 542.716624 211.688721 
L 571.984726 196.386046 
L 601.252829 185.865458 
L 630.520931 182.039789 
L 659.789034 194.473212 
L 659.789034 169.606366 
L 659.789034 169.606366 
L 630.520931 141.870269 
L 601.252829 157.172943 
L 571.984726 176.301286 
L 542.716624 178.21412 
L 513.448521 194.473212 
L 484.180419 180.126955 
L 454.912316 192.560378 
L 425.644214 218.383641 
L 396.376111 225.078561 
z
" clip-path="url(#pdc110a459a)" style="fill: #419884; fill-opacity: 0.85"/>
   </g>
   <g id="matplotlib.axis_3">
    <g id="xtick_5">
     <g id="line2d_12">
      <g>
       <use xlink:href="#m855556c0c4" x="396.376111" y="309.24327" style="stroke: #000000; stroke-width: 0.8"/>
      </g>
     </g>
     <g id="text_18">
      <text style="font: 10px 'DejaVu Sans', 'Heiti TC'; text-anchor: middle" x="396.376111" y="323.841707" transform="rotate(-0 396.376111 323.841707)">2015</text>
     </g>
    </g>
    <g id="xtick_6">
     <g id="line2d_13">
      <g>
       <use xlink:href="#m855556c0c4" x="484.180419" y="309.24327" style="stroke: #000000; stroke-width: 0.8"/>
      </g>
     </g>
     <g id="text_19">
      <text style="font: 10px 'DejaVu Sans', 'Heiti TC'; text-anchor: middle" x="484.180419" y="323.841707" transform="rotate(-0 484.180419 323.841707)">2018</text>
     </g>
    </g>
    <g id="xtick_7">
     <g id="line2d_14">
      <g>
       <use xlink:href="#m855556c0c4" x="571.984726" y="309.24327" style="stroke: #000000; stroke-width: 0.8"/>
      </g>
     </g>
     <g id="text_20">
      <text style="font: 10px 'DejaVu Sans', 'Heiti TC'; text-anchor: middle" x="571.984726" y="323.841707" transform="rotate(-0 571.984726 323.841707)">2021</text>
     </g>
    </g>
    <g id="xtick_8">
     <g id="line2d_15">
      <g>
       <use xlink:href="#m855556c0c4" x="659.789034" y="309.24327" style="stroke: #000000; stroke-width: 0.8"/>
      </g>
     </g>
     <g id="text_21">
      <text style="font: 10px 'DejaVu Sans', 'Heiti TC'; text-anchor: middle" x="659.789034" y="323.841707" transform="rotate(-0 659.789034 323.841707)">2024</text>
     </g>
    </g>
    <g id="text_22">
     <text style="font: 10px 'DejaVu Sans', 'Heiti TC'; text-anchor: middle" x="528.082572" y="337.519832" transform="rotate(-0 528.082572 337.519832)">發表年</text>
    </g>
   </g>
   <g id="matplotlib.axis_4">
    <g id="ytick_8">
     <g id="line2d_16">
      <g>
       <use xlink:href="#mfc24e50a48" x="383.205465" y="309.24327" style="stroke: #000000; stroke-width: 0.8"/>
      </g>
     </g>
     <g id="text_23">
      <text style="font: 10px 'DejaVu Sans', 'Heiti TC'; text-anchor: end" x="376.205465" y="313.042489" transform="rotate(-0 376.205465 313.042489)">0</text>
     </g>
    </g>
    <g id="ytick_9">
     <g id="line2d_17">
      <g>
       <use xlink:href="#mfc24e50a48" x="383.205465" y="261.422412" style="stroke: #000000; stroke-width: 0.8"/>
      </g>
     </g>
     <g id="text_24">
      <text style="font: 10px 'DejaVu Sans', 'Heiti TC'; text-anchor: end" x="376.205465" y="265.221631" transform="rotate(-0 376.205465 265.221631)">50</text>
     </g>
    </g>
    <g id="ytick_10">
     <g id="line2d_18">
      <g>
       <use xlink:href="#mfc24e50a48" x="383.205465" y="213.601555" style="stroke: #000000; stroke-width: 0.8"/>
      </g>
     </g>
     <g id="text_25">
      <text style="font: 10px 'DejaVu Sans', 'Heiti TC'; text-anchor: end" x="376.205465" y="217.400774" transform="rotate(-0 376.205465 217.400774)">100</text>
     </g>
    </g>
    <g id="ytick_11">
     <g id="line2d_19">
      <g>
       <use xlink:href="#mfc24e50a48" x="383.205465" y="165.780697" style="stroke: #000000; stroke-width: 0.8"/>
      </g>
     </g>
     <g id="text_26">
      <text style="font: 10px 'DejaVu Sans', 'Heiti TC'; text-anchor: end" x="376.205465" y="169.579916" transform="rotate(-0 376.205465 169.579916)">150</text>
     </g>
    </g>
    <g id="ytick_12">
     <g id="line2d_20">
      <g>
       <use xlink:href="#mfc24e50a48" x="383.205465" y="117.95984" style="stroke: #000000; stroke-width: 0.8"/>
      </g>
     </g>
     <g id="text_27">
      <text style="font: 10px 'DejaVu Sans', 'Heiti TC'; text-anchor: end" x="376.205465" y="121.759059" transform="rotate(-0 376.205465 121.759059)">200</text>
     </g>
    </g>
    <g id="ytick_13">
     <g id="line2d_21">
      <g>
       <use xlink:href="#mfc24e50a48" x="383.205465" y="70.138982" style="stroke: #000000; stroke-width: 0.8"/>
      </g>
     </g>
     <g id="text_28">
      <text style="font: 10px 'DejaVu Sans', 'Heiti TC'; text-anchor: end" x="376.205465" y="73.938201" transform="rotate(-0 376.205465 73.938201)">250</text>
     </g>
    </g>
    <g id="ytick_14">
     <g id="line2d_22">
      <g>
       <use xlink:href="#mfc24e50a48" x="383.205465" y="22.318125" style="stroke: #000000; stroke-width: 0.8"/>
      </g>
     </g>
     <g id="text_29">
      <text style="font: 10px 'DejaVu Sans', 'Heiti TC'; text-anchor: end" x="376.205465" y="26.117344" transform="rotate(-0 376.205465 26.117344)">300</text>
     </g>
    </g>
    <g id="text_30">
     <text style="font: 10px 'DejaVu Sans', 'Heiti TC'; text-anchor: middle" x="351.038278" y="165.780697" transform="rotate(-90 351.038278 165.780697)">當年不同名冊—非名冊合作對</text>
    </g>
   </g>
   <g id="patch_10">
    <path d="M 383.205465 309.24327 
L 383.205465 22.318125 
" style="fill: none; stroke: #000000; stroke-width: 0.8; stroke-linejoin: miter; stroke-linecap: square"/>
   </g>
   <g id="patch_11">
    <path d="M 383.205465 309.24327 
L 672.95968 309.24327 
" style="fill: none; stroke: #000000; stroke-width: 0.8; stroke-linejoin: miter; stroke-linecap: square"/>
   </g>
   <g id="text_31">
    <text style="font: 12px 'DejaVu Sans', 'Heiti TC'; text-anchor: middle" x="528.082572" y="16.318125" transform="rotate(-0 528.082572 16.318125)">海外非名冊</text>
   </g>
   <g id="legend_2">
    <g id="patch_12">
     <path d="M 388.805465 63.945625 
L 454.405465 63.945625 
Q 456.005465 63.945625 456.005465 62.345625 
L 456.005465 27.918125 
Q 456.005465 26.318125 454.405465 26.318125 
L 388.805465 26.318125 
Q 387.205465 26.318125 387.205465 27.918125 
L 387.205465 62.345625 
Q 387.205465 63.945625 388.805465 63.945625 
z
" style="fill: #ffffff; opacity: 0.8; stroke: #cccccc; stroke-linejoin: miter"/>
    </g>
    <g id="patch_13">
     <path d="M 390.405465 35.596875 
L 406.405465 35.596875 
L 406.405465 29.996875 
L 390.405465 29.996875 
z
" style="fill: #2878a0; fill-opacity: 0.85"/>
    </g>
    <g id="text_32">
     <text style="font: 8px 'DejaVu Sans', 'Heiti TC'; text-anchor: start" x="412.805465" y="35.596875" transform="rotate(-0 412.805465 35.596875)">首次觀察</text>
    </g>
    <g id="patch_14">
     <path d="M 390.405465 47.339375 
L 406.405465 47.339375 
L 406.405465 41.739375 
L 390.405465 41.739375 
z
" style="fill: #d76b45; fill-opacity: 0.85"/>
    </g>
    <g id="text_33">
     <text style="font: 8px 'DejaVu Sans', 'Heiti TC'; text-anchor: start" x="412.805465" y="47.339375" transform="rotate(-0 412.805465 47.339375)">連年出現</text>
    </g>
    <g id="patch_15">
     <path d="M 390.405465 59.081875 
L 406.405465 59.081875 
L 406.405465 53.481875 
L 390.405465 53.481875 
z
" style="fill: #419884; fill-opacity: 0.85"/>
    </g>
    <g id="text_34">
     <text style="font: 8px 'DejaVu Sans', 'Heiti TC'; text-anchor: start" x="412.805465" y="59.081875" transform="rotate(-0 412.805465 59.081875)">間隔後再現</text>
    </g>
   </g>
  </g>
  <g id="axes_3">
   <g id="patch_16">
    <path d="M 719.445305 309.24327 
L 1009.19952 309.24327 
L 1009.19952 22.318125 
L 719.445305 22.318125 
z
" style="fill: #ffffff"/>
   </g>
   <g id="PolyCollection_7">
    <path d="M 732.615951 66.313314 
L 732.615951 309.24327 
L 761.884054 309.24327 
L 791.152156 309.24327 
L 820.420259 309.24327 
L 849.688361 309.24327 
L 878.956464 309.24327 
L 908.224566 309.24327 
L 937.492669 309.24327 
L 966.760771 309.24327 
L 996.028874 309.24327 
L 996.028874 160.998612 
L 996.028874 160.998612 
L 966.760771 176.301286 
L 937.492669 224.122144 
L 908.224566 155.260109 
L 878.956464 188.734709 
L 849.688361 198.298881 
L 820.420259 159.085777 
L 791.152156 161.955029 
L 761.884054 111.26492 
L 732.615951 66.313314 
z
" clip-path="url(#p4a35c70f93)" style="fill: #2878a0; fill-opacity: 0.85"/>
   </g>
   <g id="PolyCollection_8">
    <path d="M 732.615951 66.313314 
L 732.615951 66.313314 
L 761.884054 111.26492 
L 791.152156 161.955029 
L 820.420259 159.085777 
L 849.688361 198.298881 
L 878.956464 188.734709 
L 908.224566 155.260109 
L 937.492669 224.122144 
L 966.760771 176.301286 
L 996.028874 160.998612 
L 996.028874 142.826686 
L 996.028874 142.826686 
L 966.760771 164.82428 
L 937.492669 202.124549 
L 908.224566 132.306097 
L 878.956464 170.562783 
L 849.688361 171.5192 
L 820.420259 138.0446 
L 791.152156 137.088183 
L 761.884054 87.354491 
L 732.615951 66.313314 
z
" clip-path="url(#p4a35c70f93)" style="fill: #d76b45; fill-opacity: 0.85"/>
   </g>
   <g id="PolyCollection_9">
    <path d="M 732.615951 66.313314 
L 732.615951 66.313314 
L 761.884054 87.354491 
L 791.152156 137.088183 
L 820.420259 138.0446 
L 849.688361 171.5192 
L 878.956464 170.562783 
L 908.224566 132.306097 
L 937.492669 202.124549 
L 966.760771 164.82428 
L 996.028874 142.826686 
L 996.028874 128.480429 
L 996.028874 128.480429 
L 966.760771 136.131766 
L 937.492669 189.691126 
L 908.224566 117.95984 
L 878.956464 149.521606 
L 849.688361 162.911446 
L 820.420259 116.047006 
L 791.152156 129.436846 
L 761.884054 87.354491 
L 732.615951 66.313314 
z
" clip-path="url(#p4a35c70f93)" style="fill: #419884; fill-opacity: 0.85"/>
   </g>
   <g id="matplotlib.axis_5">
    <g id="xtick_9">
     <g id="line2d_23">
      <g>
       <use xlink:href="#m855556c0c4" x="732.615951" y="309.24327" style="stroke: #000000; stroke-width: 0.8"/>
      </g>
     </g>
     <g id="text_35">
      <text style="font: 10px 'DejaVu Sans', 'Heiti TC'; text-anchor: middle" x="732.615951" y="323.841707" transform="rotate(-0 732.615951 323.841707)">2015</text>
     </g>
    </g>
    <g id="xtick_10">
     <g id="line2d_24">
      <g>
       <use xlink:href="#m855556c0c4" x="820.420259" y="309.24327" style="stroke: #000000; stroke-width: 0.8"/>
      </g>
     </g>
     <g id="text_36">
      <text style="font: 10px 'DejaVu Sans', 'Heiti TC'; text-anchor: middle" x="820.420259" y="323.841707" transform="rotate(-0 820.420259 323.841707)">2018</text>
     </g>
    </g>
    <g id="xtick_11">
     <g id="line2d_25">
      <g>
       <use xlink:href="#m855556c0c4" x="908.224566" y="309.24327" style="stroke: #000000; stroke-width: 0.8"/>
      </g>
     </g>
     <g id="text_37">
      <text style="font: 10px 'DejaVu Sans', 'Heiti TC'; text-anchor: middle" x="908.224566" y="323.841707" transform="rotate(-0 908.224566 323.841707)">2021</text>
     </g>
    </g>
    <g id="xtick_12">
     <g id="line2d_26">
      <g>
       <use xlink:href="#m855556c0c4" x="996.028874" y="309.24327" style="stroke: #000000; stroke-width: 0.8"/>
      </g>
     </g>
     <g id="text_38">
      <text style="font: 10px 'DejaVu Sans', 'Heiti TC'; text-anchor: middle" x="996.028874" y="323.841707" transform="rotate(-0 996.028874 323.841707)">2024</text>
     </g>
    </g>
    <g id="text_39">
     <text style="font: 10px 'DejaVu Sans', 'Heiti TC'; text-anchor: middle" x="864.322413" y="337.519832" transform="rotate(-0 864.322413 337.519832)">發表年</text>
    </g>
   </g>
   <g id="matplotlib.axis_6">
    <g id="ytick_15">
     <g id="line2d_27">
      <g>
       <use xlink:href="#mfc24e50a48" x="719.445305" y="309.24327" style="stroke: #000000; stroke-width: 0.8"/>
      </g>
     </g>
     <g id="text_40">
      <text style="font: 10px 'DejaVu Sans', 'Heiti TC'; text-anchor: end" x="712.445305" y="313.042489" transform="rotate(-0 712.445305 313.042489)">0</text>
     </g>
    </g>
    <g id="ytick_16">
     <g id="line2d_28">
      <g>
       <use xlink:href="#mfc24e50a48" x="719.445305" y="261.422412" style="stroke: #000000; stroke-width: 0.8"/>
      </g>
     </g>
     <g id="text_41">
      <text style="font: 10px 'DejaVu Sans', 'Heiti TC'; text-anchor: end" x="712.445305" y="265.221631" transform="rotate(-0 712.445305 265.221631)">50</text>
     </g>
    </g>
    <g id="ytick_17">
     <g id="line2d_29">
      <g>
       <use xlink:href="#mfc24e50a48" x="719.445305" y="213.601555" style="stroke: #000000; stroke-width: 0.8"/>
      </g>
     </g>
     <g id="text_42">
      <text style="font: 10px 'DejaVu Sans', 'Heiti TC'; text-anchor: end" x="712.445305" y="217.400774" transform="rotate(-0 712.445305 217.400774)">100</text>
     </g>
    </g>
    <g id="ytick_18">
     <g id="line2d_30">
      <g>
       <use xlink:href="#mfc24e50a48" x="719.445305" y="165.780697" style="stroke: #000000; stroke-width: 0.8"/>
      </g>
     </g>
     <g id="text_43">
      <text style="font: 10px 'DejaVu Sans', 'Heiti TC'; text-anchor: end" x="712.445305" y="169.579916" transform="rotate(-0 712.445305 169.579916)">150</text>
     </g>
    </g>
    <g id="ytick_19">
     <g id="line2d_31">
      <g>
       <use xlink:href="#mfc24e50a48" x="719.445305" y="117.95984" style="stroke: #000000; stroke-width: 0.8"/>
      </g>
     </g>
     <g id="text_44">
      <text style="font: 10px 'DejaVu Sans', 'Heiti TC'; text-anchor: end" x="712.445305" y="121.759059" transform="rotate(-0 712.445305 121.759059)">200</text>
     </g>
    </g>
    <g id="ytick_20">
     <g id="line2d_32">
      <g>
       <use xlink:href="#mfc24e50a48" x="719.445305" y="70.138982" style="stroke: #000000; stroke-width: 0.8"/>
      </g>
     </g>
     <g id="text_45">
      <text style="font: 10px 'DejaVu Sans', 'Heiti TC'; text-anchor: end" x="712.445305" y="73.938201" transform="rotate(-0 712.445305 73.938201)">250</text>
     </g>
    </g>
    <g id="ytick_21">
     <g id="line2d_33">
      <g>
       <use xlink:href="#mfc24e50a48" x="719.445305" y="22.318125" style="stroke: #000000; stroke-width: 0.8"/>
      </g>
     </g>
     <g id="text_46">
      <text style="font: 10px 'DejaVu Sans', 'Heiti TC'; text-anchor: end" x="712.445305" y="26.117344" transform="rotate(-0 712.445305 26.117344)">300</text>
     </g>
    </g>
    <g id="text_47">
     <text style="font: 10px 'DejaVu Sans', 'Heiti TC'; text-anchor: middle" x="687.278118" y="165.780697" transform="rotate(-90 687.278118 165.780697)">當年不同名冊—非名冊合作對</text>
    </g>
   </g>
   <g id="patch_17">
    <path d="M 719.445305 309.24327 
L 719.445305 22.318125 
" style="fill: none; stroke: #000000; stroke-width: 0.8; stroke-linejoin: miter; stroke-linecap: square"/>
   </g>
   <g id="patch_18">
    <path d="M 719.445305 309.24327 
L 1009.19952 309.24327 
" style="fill: none; stroke: #000000; stroke-width: 0.8; stroke-linejoin: miter; stroke-linecap: square"/>
   </g>
   <g id="text_48">
    <text style="font: 12px 'DejaVu Sans', 'Heiti TC'; text-anchor: middle" x="864.322413" y="16.318125" transform="rotate(-0 864.322413 16.318125)">國別未知</text>
   </g>
   <g id="legend_3">
    <g id="patch_19">
     <path d="M 725.045305 63.945625 
L 790.645305 63.945625 
Q 792.245305 63.945625 792.245305 62.345625 
L 792.245305 27.918125 
Q 792.245305 26.318125 790.645305 26.318125 
L 725.045305 26.318125 
Q 723.445305 26.318125 723.445305 27.918125 
L 723.445305 62.345625 
Q 723.445305 63.945625 725.045305 63.945625 
z
" style="fill: #ffffff; opacity: 0.8; stroke: #cccccc; stroke-linejoin: miter"/>
    </g>
    <g id="patch_20">
     <path d="M 726.645305 35.596875 
L 742.645305 35.596875 
L 742.645305 29.996875 
L 726.645305 29.996875 
z
" style="fill: #2878a0; fill-opacity: 0.85"/>
    </g>
    <g id="text_49">
     <text style="font: 8px 'DejaVu Sans', 'Heiti TC'; text-anchor: start" x="749.045305" y="35.596875" transform="rotate(-0 749.045305 35.596875)">首次觀察</text>
    </g>
    <g id="patch_21">
     <path d="M 726.645305 47.339375 
L 742.645305 47.339375 
L 742.645305 41.739375 
L 726.645305 41.739375 
z
" style="fill: #d76b45; fill-opacity: 0.85"/>
    </g>
    <g id="text_50">
     <text style="font: 8px 'DejaVu Sans', 'Heiti TC'; text-anchor: start" x="749.045305" y="47.339375" transform="rotate(-0 749.045305 47.339375)">連年出現</text>
    </g>
    <g id="patch_22">
     <path d="M 726.645305 59.081875 
L 742.645305 59.081875 
L 742.645305 53.481875 
L 726.645305 53.481875 
z
" style="fill: #419884; fill-opacity: 0.85"/>
    </g>
    <g id="text_51">
     <text style="font: 8px 'DejaVu Sans', 'Heiti TC'; text-anchor: start" x="749.045305" y="59.081875" transform="rotate(-0 749.045305 59.081875)">間隔後再現</text>
    </g>
   </g>
  </g>
 </g>
 <defs>
  <clipPath id="pef45c75f69">
   <rect x="46.965625" y="22.318125" width="289.754215" height="286.925145"/>
  </clipPath>
  <clipPath id="pdc110a459a">
   <rect x="383.205465" y="22.318125" width="289.754215" height="286.925145"/>
  </clipPath>
  <clipPath id="p4a35c70f93">
   <rect x="719.445305" y="22.318125" width="289.754215" height="286.925145"/>
  </clipPath>
 </defs>
</svg>
