<?xml version="1.0" encoding="utf-8" standalone="no"?>
<!DOCTYPE svg PUBLIC "-//W3C//DTD SVG 1.1//EN"
  "http://www.w3.org/Graphics/SVG/1.1/DTD/svg11.dtd">
<svg xmlns:xlink="http://www.w3.org/1999/xlink" width="872.39952pt" height="325.19952pt" viewBox="0 0 872.39952 325.19952" xmlns="http://www.w3.org/2000/svg" version="1.1">
 <metadata>
  <rdf:RDF xmlns:dc="http://purl.org/dc/elements/1.1/" xmlns:cc="http://creativecommons.org/ns#" xmlns:rdf="http://www.w3.org/1999/02/22-rdf-syntax-ns#">
   <cc:Work>
    <dc:type rdf:resource="http://purl.org/dc/dcmitype/StillImage"/>
    <dc:date>2026-09-10T20:34:39.104592</dc:date>
    <dc:format>image/svg+xml</dc:format>
    <dc:creator>
     <cc:Agent>
      <dc:title>Matplotlib v3.9.4, https://matplotlib.org/</dc:title>
     </cc:Agent>
    </dc:creator>
   </cc:Work>
  </rdf:RDF>
 </metadata>
 <defs>
  <style type="text/css">*{stroke-linejoin: round; stroke-linecap: butt}</style>
 </defs>
 <g id="figure_1">
  <g id="patch_1">
   <path d="M 0 325.19952 
L 872.39952 325.19952 
L 872.39952 0 
L 0 0 
z
" style="fill: #ffffff"/>
  </g>
  <g id="axes_1">
   <g id="patch_2">
    <path d="M 46.965625 287.64327 
L 428.69851 287.64327 
L 428.69851 22.318125 
L 46.965625 22.318125 
z
" style="fill: #ffffff"/>
   </g>
   <g id="patch_3">
    <path d="M 381.170503 287.64327 
L 411.347015 287.64327 
L 411.347015 22.318125 
L 381.170503 22.318125 
z
" clip-path="url(#pb66978fac2)" style="fill: #e9e9e9; stroke: #e9e9e9; stroke-linejoin: miter"/>
   </g>
   <g id="matplotlib.axis_1">
    <g id="xtick_1">
     <g id="line2d_1">
      <defs>
       <path id="m891f592aa0" d="M 0 0 
L 0 3.5 
" style="stroke: #000000; stroke-width: 0.8"/>
      </defs>
      <g>
       <use xlink:href="#m891f592aa0" x="64.31712" y="287.64327" style="stroke: #000000; stroke-width: 0.8"/>
      </g>
     </g>
     <g id="text_1">
      <text style="font: 10px 'DejaVu Sans'; text-anchor: middle" x="64.31712" y="302.241707" transform="rotate(-0 64.31712 302.241707)">2015</text>
     </g>
    </g>
    <g id="xtick_2">
     <g id="line2d_2">
      <g>
       <use xlink:href="#m891f592aa0" x="154.846658" y="287.64327" style="stroke: #000000; stroke-width: 0.8"/>
      </g>
     </g>
     <g id="text_2">
      <text style="font: 10px 'DejaVu Sans'; text-anchor: middle" x="154.846658" y="302.241707" transform="rotate(-0 154.846658 302.241707)">2018</text>
     </g>
    </g>
    <g id="xtick_3">
     <g id="line2d_3">
      <g>
       <use xlink:href="#m891f592aa0" x="245.376196" y="287.64327" style="stroke: #000000; stroke-width: 0.8"/>
      </g>
     </g>
     <g id="text_3">
      <text style="font: 10px 'DejaVu Sans'; text-anchor: middle" x="245.376196" y="302.241707" transform="rotate(-0 245.376196 302.241707)">2021</text>
     </g>
    </g>
    <g id="xtick_4">
     <g id="line2d_4">
      <g>
       <use xlink:href="#m891f592aa0" x="335.905734" y="287.64327" style="stroke: #000000; stroke-width: 0.8"/>
      </g>
     </g>
     <g id="text_4">
      <text style="font: 10px 'DejaVu Sans'; text-anchor: middle" x="335.905734" y="302.241707" transform="rotate(-0 335.905734 302.241707)">2024</text>
     </g>
    </g>
    <g id="xtick_5">
     <g id="line2d_5">
      <g>
       <use xlink:href="#m891f592aa0" x="396.258759" y="287.64327" style="stroke: #000000; stroke-width: 0.8"/>
      </g>
     </g>
     <g id="text_5">
      <text style="font: 10px 'DejaVu Sans'; text-anchor: middle" x="396.258759" y="302.241707" transform="rotate(-0 396.258759 302.241707)">2026</text>
     </g>
    </g>
    <g id="text_6">
     <text style="font: 10px 'DejaVu Sans'; text-anchor: middle" x="237.832067" y="315.919832" transform="rotate(-0 237.832067 315.919832)">Year</text>
    </g>
   </g>
   <g id="matplotlib.axis_2">
    <g id="ytick_1">
     <g id="line2d_6">
      <defs>
       <path id="m7975e05c22" d="M 0 0 
L -3.5 0 
" style="stroke: #000000; stroke-width: 0.8"/>
      </defs>
      <g>
       <use xlink:href="#m7975e05c22" x="46.965625" y="271.653021" style="stroke: #000000; stroke-width: 0.8"/>
      </g>
     </g>
     <g id="text_7">
      <text style="font: 10px 'DejaVu Sans'; text-anchor: end" x="39.965625" y="275.45224" transform="rotate(-0 39.965625 275.45224)">100</text>
     </g>
    </g>
    <g id="ytick_2">
     <g id="line2d_7">
      <g>
       <use xlink:href="#m7975e05c22" x="46.965625" y="222.527832" style="stroke: #000000; stroke-width: 0.8"/>
      </g>
     </g>
     <g id="text_8">
      <text style="font: 10px 'DejaVu Sans'; text-anchor: end" x="39.965625" y="226.327051" transform="rotate(-0 39.965625 226.327051)">200</text>
     </g>
    </g>
    <g id="ytick_3">
     <g id="line2d_8">
      <g>
       <use xlink:href="#m7975e05c22" x="46.965625" y="173.402643" style="stroke: #000000; stroke-width: 0.8"/>
      </g>
     </g>
     <g id="text_9">
      <text style="font: 10px 'DejaVu Sans'; text-anchor: end" x="39.965625" y="177.201862" transform="rotate(-0 39.965625 177.201862)">300</text>
     </g>
    </g>
    <g id="ytick_4">
     <g id="line2d_9">
      <g>
       <use xlink:href="#m7975e05c22" x="46.965625" y="124.277454" style="stroke: #000000; stroke-width: 0.8"/>
      </g>
     </g>
     <g id="text_10">
      <text style="font: 10px 'DejaVu Sans'; text-anchor: end" x="39.965625" y="128.076673" transform="rotate(-0 39.965625 128.076673)">400</text>
     </g>
    </g>
    <g id="ytick_5">
     <g id="line2d_10">
      <g>
       <use xlink:href="#m7975e05c22" x="46.965625" y="75.152266" style="stroke: #000000; stroke-width: 0.8"/>
      </g>
     </g>
     <g id="text_11">
      <text style="font: 10px 'DejaVu Sans'; text-anchor: end" x="39.965625" y="78.951484" transform="rotate(-0 39.965625 78.951484)">500</text>
     </g>
    </g>
    <g id="ytick_6">
     <g id="line2d_11">
      <g>
       <use xlink:href="#m7975e05c22" x="46.965625" y="26.027077" style="stroke: #000000; stroke-width: 0.8"/>
      </g>
     </g>
     <g id="text_12">
      <text style="font: 10px 'DejaVu Sans'; text-anchor: end" x="39.965625" y="29.826296" transform="rotate(-0 39.965625 29.826296)">600</text>
     </g>
    </g>
    <g id="text_13">
     <text style="font: 10px 'DejaVu Sans'; text-anchor: middle" x="14.798438" y="154.980697" transform="rotate(-90 14.798438 154.980697)">Publication records</text>
    </g>
   </g>
   <g id="line2d_12">
    <path d="M 64.31712 34.378359 
L 94.493632 64.835976 
L 124.670145 72.696006 
L 154.846658 63.853472 
L 185.02317 121.821195 
L 215.199683 121.329943 
L 245.376196 111.013653 
L 275.552708 127.716218 
L 305.729221 104.627379 
L 335.905734 128.698721 
L 366.082246 124.277454 
L 396.258759 269.196762 
" clip-path="url(#pb66978fac2)" style="fill: none; stroke: #2878a0; stroke-width: 1.5; stroke-linecap: square"/>
    <defs>
     <path id="m888d47fe5b" d="M 0 3 
C 0.795609 3 1.55874 2.683901 2.12132 2.12132 
C 2.683901 1.55874 3 0.795609 3 0 
C 3 -0.795609 2.683901 -1.55874 2.12132 -2.12132 
C 1.55874 -2.683901 0.795609 -3 0 -3 
C -0.795609 -3 -1.55874 -2.683901 -2.12132 -2.12132 
C -2.683901 -1.55874 -3 -0.795609 -3 0 
C -3 0.795609 -2.683901 1.55874 -2.12132 2.12132 
C -1.55874 2.683901 -0.795609 3 0 3 
z
" style="stroke: #2878a0"/>
    </defs>
    <g clip-path="url(#pb66978fac2)">
     <use xlink:href="#m888d47fe5b" x="64.31712" y="34.378359" style="fill: #2878a0; stroke: #2878a0"/>
     <use xlink:href="#m888d47fe5b" x="94.493632" y="64.835976" style="fill: #2878a0; stroke: #2878a0"/>
     <use xlink:href="#m888d47fe5b" x="124.670145" y="72.696006" style="fill: #2878a0; stroke: #2878a0"/>
     <use xlink:href="#m888d47fe5b" x="154.846658" y="63.853472" style="fill: #2878a0; stroke: #2878a0"/>
     <use xlink:href="#m888d47fe5b" x="185.02317" y="121.821195" style="fill: #2878a0; stroke: #2878a0"/>
     <use xlink:href="#m888d47fe5b" x="215.199683" y="121.329943" style="fill: #2878a0; stroke: #2878a0"/>
     <use xlink:href="#m888d47fe5b" x="245.376196" y="111.013653" style="fill: #2878a0; stroke: #2878a0"/>
     <use xlink:href="#m888d47fe5b" x="275.552708" y="127.716218" style="fill: #2878a0; stroke: #2878a0"/>
     <use xlink:href="#m888d47fe5b" x="305.729221" y="104.627379" style="fill: #2878a0; stroke: #2878a0"/>
     <use xlink:href="#m888d47fe5b" x="335.905734" y="128.698721" style="fill: #2878a0; stroke: #2878a0"/>
     <use xlink:href="#m888d47fe5b" x="366.082246" y="124.277454" style="fill: #2878a0; stroke: #2878a0"/>
     <use xlink:href="#m888d47fe5b" x="396.258759" y="269.196762" style="fill: #2878a0; stroke: #2878a0"/>
    </g>
   </g>
   <g id="line2d_13">
    <path d="M 64.31712 72.696006 
L 94.493632 94.311089 
L 124.670145 99.223608 
L 154.846658 97.258601 
L 185.02317 142.945026 
L 215.199683 140.488767 
L 245.376196 135.084996 
L 275.552708 151.78756 
L 305.729221 130.663729 
L 335.905734 149.822553 
L 366.082246 142.945026 
L 396.258759 275.583036 
" clip-path="url(#pb66978fac2)" style="fill: none; stroke: #419884; stroke-width: 1.5; stroke-linecap: square"/>
    <defs>
     <path id="mf57b94126c" d="M 0 3 
C 0.795609 3 1.55874 2.683901 2.12132 2.12132 
C 2.683901 1.55874 3 0.795609 3 0 
C 3 -0.795609 2.683901 -1.55874 2.12132 -2.12132 
C 1.55874 -2.683901 0.795609 -3 0 -3 
C -0.795609 -3 -1.55874 -2.683901 -2.12132 -2.12132 
C -2.683901 -1.55874 -3 -0.795609 -3 0 
C -3 0.795609 -2.683901 1.55874 -2.12132 2.12132 
C -1.55874 2.683901 -0.795609 3 0 3 
z
" style="stroke: #419884"/>
    </defs>
    <g clip-path="url(#pb66978fac2)">
     <use xlink:href="#mf57b94126c" x="64.31712" y="72.696006" style="fill: #419884; stroke: #419884"/>
     <use xlink:href="#mf57b94126c" x="94.493632" y="94.311089" style="fill: #419884; stroke: #419884"/>
     <use xlink:href="#mf57b94126c" x="124.670145" y="99.223608" style="fill: #419884; stroke: #419884"/>
     <use xlink:href="#mf57b94126c" x="154.846658" y="97.258601" style="fill: #419884; stroke: #419884"/>
     <use xlink:href="#mf57b94126c" x="185.02317" y="142.945026" style="fill: #419884; stroke: #419884"/>
     <use xlink:href="#mf57b94126c" x="215.199683" y="140.488767" style="fill: #419884; stroke: #419884"/>
     <use xlink:href="#mf57b94126c" x="245.376196" y="135.084996" style="fill: #419884; stroke: #419884"/>
     <use xlink:href="#mf57b94126c" x="275.552708" y="151.78756" style="fill: #419884; stroke: #419884"/>
     <use xlink:href="#mf57b94126c" x="305.729221" y="130.663729" style="fill: #419884; stroke: #419884"/>
     <use xlink:href="#mf57b94126c" x="335.905734" y="149.822553" style="fill: #419884; stroke: #419884"/>
     <use xlink:href="#mf57b94126c" x="366.082246" y="142.945026" style="fill: #419884; stroke: #419884"/>
     <use xlink:href="#mf57b94126c" x="396.258759" y="275.583036" style="fill: #419884; stroke: #419884"/>
    </g>
   </g>
   <g id="patch_4">
    <path d="M 46.965625 287.64327 
L 46.965625 22.318125 
" style="fill: none; stroke: #000000; stroke-width: 0.8; stroke-linejoin: miter; stroke-linecap: square"/>
   </g>
   <g id="patch_5">
    <path d="M 46.965625 287.64327 
L 428.69851 287.64327 
" style="fill: none; stroke: #000000; stroke-width: 0.8; stroke-linejoin: miter; stroke-linecap: square"/>
   </g>
   <g id="text_14">
    <text style="font: 12px 'DejaVu Sans'; text-anchor: middle" x="237.832067" y="16.318125" transform="rotate(-0 237.832067 16.318125)">A  Publication coverage; 2026 is partial</text>
   </g>
   <g id="legend_1">
    <g id="patch_6">
     <path d="M 52.565625 283.64327 
L 167.185625 283.64327 
Q 168.785625 283.64327 168.785625 282.04327 
L 168.785625 259.35827 
Q 168.785625 257.75827 167.185625 257.75827 
L 52.565625 257.75827 
Q 50.965625 257.75827 50.965625 259.35827 
L 50.965625 282.04327 
Q 50.965625 283.64327 52.565625 283.64327 
z
" style="fill: #ffffff; opacity: 0.8; stroke: #cccccc; stroke-linejoin: miter"/>
    </g>
    <g id="line2d_14">
     <path d="M 54.165625 264.23702 
L 62.165625 264.23702 
L 70.165625 264.23702 
" style="fill: none; stroke: #2878a0; stroke-width: 1.5; stroke-linecap: square"/>
     <g>
      <use xlink:href="#m888d47fe5b" x="62.165625" y="264.23702" style="fill: #2878a0; stroke: #2878a0"/>
     </g>
    </g>
    <g id="text_15">
     <text style="font: 8px 'DejaVu Sans'; text-anchor: start" x="76.565625" y="267.03702" transform="rotate(-0 76.565625 267.03702)">All publication records</text>
    </g>
    <g id="line2d_15">
     <path d="M 54.165625 275.97952 
L 62.165625 275.97952 
L 70.165625 275.97952 
" style="fill: none; stroke: #419884; stroke-width: 1.5; stroke-linecap: square"/>
     <g>
      <use xlink:href="#mf57b94126c" x="62.165625" y="275.97952" style="fill: #419884; stroke: #419884"/>
     </g>
    </g>
    <g id="text_16">
     <text style="font: 8px 'DejaVu Sans'; text-anchor: start" x="76.565625" y="278.77952" transform="rotate(-0 76.565625 278.77952)">Clean + edge eligible</text>
    </g>
   </g>
  </g>
  <g id="axes_2">
   <g id="patch_7">
    <path d="M 483.466635 287.64327 
L 865.19952 287.64327 
L 865.19952 22.318125 
L 483.466635 22.318125 
z
" style="fill: #ffffff"/>
   </g>
   <g id="patch_8">
    <path d="M 500.81813 287.64327 
L 599.969528 287.64327 
L 599.969528 164.782652 
L 500.81813 164.782652 
z
" clip-path="url(#p6bd80cb465)" style="fill: #2878a0"/>
   </g>
   <g id="patch_9">
    <path d="M 624.757378 287.64327 
L 723.908777 287.64327 
L 723.908777 144.367007 
L 624.757378 144.367007 
z
" clip-path="url(#p6bd80cb465)" style="fill: #419884"/>
   </g>
   <g id="patch_10">
    <path d="M 748.696627 287.64327 
L 847.848025 287.64327 
L 847.848025 58.914697 
L 748.696627 58.914697 
z
" clip-path="url(#p6bd80cb465)" style="fill: #84919c"/>
   </g>
   <g id="matplotlib.axis_3">
    <g id="xtick_6">
     <g id="line2d_16">
      <g>
       <use xlink:href="#m891f592aa0" x="550.393829" y="287.64327" style="stroke: #000000; stroke-width: 0.8"/>
      </g>
     </g>
     <g id="text_17">
      <text style="font: 10px 'DejaVu Sans'; text-anchor: middle" x="550.393829" y="302.241707" transform="rotate(-0 550.393829 302.241707)">Taiwan</text>
     </g>
    </g>
    <g id="xtick_7">
     <g id="line2d_17">
      <g>
       <use xlink:href="#m891f592aa0" x="674.333077" y="287.64327" style="stroke: #000000; stroke-width: 0.8"/>
      </g>
     </g>
     <g id="text_18">
      <text style="font: 10px 'DejaVu Sans'; text-anchor: middle" x="674.333077" y="302.241707" transform="rotate(-0 674.333077 302.241707)">Overseas</text>
     </g>
    </g>
    <g id="xtick_8">
     <g id="line2d_18">
      <g>
       <use xlink:href="#m891f592aa0" x="798.272326" y="287.64327" style="stroke: #000000; stroke-width: 0.8"/>
      </g>
     </g>
     <g id="text_19">
      <text style="font: 10px 'DejaVu Sans'; text-anchor: middle" x="798.272326" y="302.241707" transform="rotate(-0 798.272326 302.241707)">Unknown</text>
     </g>
    </g>
   </g>
   <g id="matplotlib.axis_4">
    <g id="ytick_7">
     <g id="line2d_19">
      <g>
       <use xlink:href="#m7975e05c22" x="483.466635" y="287.64327" style="stroke: #000000; stroke-width: 0.8"/>
      </g>
     </g>
     <g id="text_20">
      <text style="font: 10px 'DejaVu Sans'; text-anchor: end" x="476.466635" y="291.442489" transform="rotate(-0 476.466635 291.442489)">0</text>
     </g>
    </g>
    <g id="ytick_8">
     <g id="line2d_20">
      <g>
       <use xlink:href="#m7975e05c22" x="483.466635" y="257.080927" style="stroke: #000000; stroke-width: 0.8"/>
      </g>
     </g>
     <g id="text_21">
      <text style="font: 10px 'DejaVu Sans'; text-anchor: end" x="476.466635" y="260.880146" transform="rotate(-0 476.466635 260.880146)">250</text>
     </g>
    </g>
    <g id="ytick_9">
     <g id="line2d_21">
      <g>
       <use xlink:href="#m7975e05c22" x="483.466635" y="226.518584" style="stroke: #000000; stroke-width: 0.8"/>
      </g>
     </g>
     <g id="text_22">
      <text style="font: 10px 'DejaVu Sans'; text-anchor: end" x="476.466635" y="230.317803" transform="rotate(-0 476.466635 230.317803)">500</text>
     </g>
    </g>
    <g id="ytick_10">
     <g id="line2d_22">
      <g>
       <use xlink:href="#m7975e05c22" x="483.466635" y="195.956242" style="stroke: #000000; stroke-width: 0.8"/>
      </g>
     </g>
     <g id="text_23">
      <text style="font: 10px 'DejaVu Sans'; text-anchor: end" x="476.466635" y="199.75546" transform="rotate(-0 476.466635 199.75546)">750</text>
     </g>
    </g>
    <g id="ytick_11">
     <g id="line2d_23">
      <g>
       <use xlink:href="#m7975e05c22" x="483.466635" y="165.393899" style="stroke: #000000; stroke-width: 0.8"/>
      </g>
     </g>
     <g id="text_24">
      <text style="font: 10px 'DejaVu Sans'; text-anchor: end" x="476.466635" y="169.193118" transform="rotate(-0 476.466635 169.193118)">1000</text>
     </g>
    </g>
    <g id="ytick_12">
     <g id="line2d_24">
      <g>
       <use xlink:href="#m7975e05c22" x="483.466635" y="134.831556" style="stroke: #000000; stroke-width: 0.8"/>
      </g>
     </g>
     <g id="text_25">
      <text style="font: 10px 'DejaVu Sans'; text-anchor: end" x="476.466635" y="138.630775" transform="rotate(-0 476.466635 138.630775)">1250</text>
     </g>
    </g>
    <g id="ytick_13">
     <g id="line2d_25">
      <g>
       <use xlink:href="#m7975e05c22" x="483.466635" y="104.269213" style="stroke: #000000; stroke-width: 0.8"/>
      </g>
     </g>
     <g id="text_26">
      <text style="font: 10px 'DejaVu Sans'; text-anchor: end" x="476.466635" y="108.068432" transform="rotate(-0 476.466635 108.068432)">1500</text>
     </g>
    </g>
    <g id="ytick_14">
     <g id="line2d_26">
      <g>
       <use xlink:href="#m7975e05c22" x="483.466635" y="73.706871" style="stroke: #000000; stroke-width: 0.8"/>
      </g>
     </g>
     <g id="text_27">
      <text style="font: 10px 'DejaVu Sans'; text-anchor: end" x="476.466635" y="77.506089" transform="rotate(-0 476.466635 77.506089)">1750</text>
     </g>
    </g>
    <g id="ytick_15">
     <g id="line2d_27">
      <g>
       <use xlink:href="#m7975e05c22" x="483.466635" y="43.144528" style="stroke: #000000; stroke-width: 0.8"/>
      </g>
     </g>
     <g id="text_28">
      <text style="font: 10px 'DejaVu Sans'; text-anchor: end" x="476.466635" y="46.943747" transform="rotate(-0 476.466635 46.943747)">2000</text>
     </g>
    </g>
    <g id="text_29">
     <text style="font: 10px 'DejaVu Sans'; text-anchor: middle" x="444.936947" y="154.980697" transform="rotate(-90 444.936947 154.980697)">Non-roster author nodes</text>
    </g>
   </g>
   <g id="patch_11">
    <path d="M 483.466635 287.64327 
L 483.466635 22.318125 
" style="fill: none; stroke: #000000; stroke-width: 0.8; stroke-linejoin: miter; stroke-linecap: square"/>
   </g>
   <g id="patch_12">
    <path d="M 483.466635 287.64327 
L 865.19952 287.64327 
" style="fill: none; stroke: #000000; stroke-width: 0.8; stroke-linejoin: miter; stroke-linecap: square"/>
   </g>
   <g id="text_30">
    <text style="font: 10px 'DejaVu Sans'; text-anchor: middle" x="550.393829" y="158.702965" transform="rotate(-0 550.393829 158.702965)">1005</text>
   </g>
   <g id="text_31">
    <text style="font: 10px 'DejaVu Sans'; text-anchor: middle" x="674.333077" y="138.28732" transform="rotate(-0 674.333077 138.28732)">1172</text>
   </g>
   <g id="text_32">
    <text style="font: 10px 'DejaVu Sans'; text-anchor: middle" x="798.272326" y="52.835009" transform="rotate(-0 798.272326 52.835009)">1871</text>
   </g>
   <g id="text_33">
    <text style="font: 12px 'DejaVu Sans'; text-anchor: middle" x="674.333077" y="16.318125" transform="rotate(-0 674.333077 16.318125)">B  Country coverage is incomplete</text>
   </g>
  </g>
 </g>
 <defs>
  <clipPath id="pb66978fac2">
   <rect x="46.965625" y="22.318125" width="381.732885" height="265.325145"/>
  </clipPath>
  <clipPath id="p6bd80cb465">
   <rect x="483.466635" y="22.318125" width="381.732885" height="265.325145"/>
  </clipPath>
 </defs>
</svg>
